<svg width="58" height="52" viewBox="0 0 58 52" fill="none" xmlns="http://www.w3.org/2000/svg">
<path d="M47.6876 16.7257C47.0703 16.5139 46.4478 16.3177 45.8207 16.1373C45.926 15.7069 46.023 15.2816 46.1091 14.8638C47.5224 8.00328 46.5985 2.47629 43.4427 0.656539C40.4169 -1.08799 35.4686 0.731078 30.4711 5.0804C29.9785 5.50981 29.4969 5.9516 29.0267 6.40534C28.712 6.10361 28.3916 5.80775 28.0659 5.51789C22.8282 0.867469 17.5783 -1.09252 14.4259 0.732437C11.4029 2.48241 10.5077 7.67816 11.7801 14.1801C11.9067 14.824 12.0496 15.4646 12.2088 16.1013C11.4656 16.3125 10.7486 16.5372 10.0623 16.7765C3.92157 18.9175 0 22.2726 0 25.7529C0 29.3473 4.20998 32.9526 10.6058 35.1387C11.1244 35.3152 11.6472 35.4787 12.1739 35.6292C12.0028 36.3149 11.851 37.0053 11.7185 37.6995C10.5055 44.0886 11.4527 49.1615 14.4676 50.9004C17.5815 52.6961 22.8078 50.8506 27.8966 46.402C28.3093 46.0403 28.7128 45.6684 29.1069 45.2866C29.6161 45.7779 30.139 46.255 30.6747 46.7171C35.6043 50.9589 40.4727 52.6717 43.4846 50.928C46.5955 49.1271 47.6067 43.6774 46.294 37.047C46.1906 36.5276 46.0746 36.0107 45.9462 35.4969C46.3132 35.3881 46.6735 35.2762 47.0246 35.1597C53.6738 32.9569 58 29.3953 58 25.7529C58 22.26 53.9518 18.8821 47.6876 16.7257ZM46.2455 32.808C45.9283 32.9129 45.603 33.0142 45.2713 33.1128C44.5372 30.7889 43.5467 28.318 42.3343 25.7649C43.4912 23.2727 44.4436 20.8333 45.1571 18.5246C45.7504 18.6964 46.3261 18.8774 46.8812 19.0684C52.2485 20.9162 55.5223 23.6479 55.5223 25.7529C55.5223 27.9949 51.9866 30.9056 46.2455 32.808ZM43.8634 37.5282C44.4439 40.4599 44.5266 43.1107 44.1421 45.1831C43.7968 47.0452 43.1022 48.2865 42.243 48.7839C40.4154 49.8419 36.5065 48.4667 32.2908 44.8389C31.7925 44.4092 31.3061 43.9658 30.8324 43.509C32.4669 41.7217 34.1001 39.6439 35.6942 37.3361C38.4982 37.0873 41.1471 36.6804 43.5494 36.1251C43.6677 36.6025 43.7728 37.0706 43.8634 37.5282ZM19.7735 48.601C17.9877 49.2315 16.5653 49.2497 15.7055 48.7539C13.876 47.6988 13.1155 43.6255 14.1529 38.1617C14.2762 37.5161 14.4174 36.874 14.5764 36.2361C16.9521 36.7618 19.5818 37.1397 22.3923 37.3676C23.9973 39.6257 25.6777 41.7013 27.3712 43.5188C27.0113 43.867 26.6429 44.2064 26.2663 44.5365C24.0159 46.5035 21.7609 47.8991 19.7735 48.601ZM11.4074 32.7942C8.57924 31.8275 6.24361 30.5712 4.64272 29.2002C3.20405 27.9684 2.47791 26.7452 2.47791 25.7529C2.47791 23.6409 5.62645 20.947 10.8779 19.1162C11.5153 18.8941 12.1823 18.6846 12.8744 18.4879C13.6003 20.8487 14.5523 23.3171 15.7012 25.8131C14.5374 28.3461 13.5718 30.8539 12.8388 33.2426C12.3581 33.1049 11.8808 32.9554 11.4074 32.7942ZM14.2118 13.704C13.1218 8.13355 13.8457 3.9315 15.6675 2.87685C17.6078 1.75355 21.8984 3.35512 26.4208 7.37072C26.7157 7.63316 27.0058 7.90093 27.291 8.17388C25.6059 9.98344 23.9409 12.0436 22.3502 14.2884C19.6224 14.5412 17.0112 14.9472 14.6106 15.4912C14.4627 14.899 14.3297 14.3032 14.2118 13.7043V13.704ZM39.2304 19.882C38.6634 18.9025 38.0753 17.9354 37.4666 16.9813C39.3172 17.2153 41.0903 17.5259 42.7553 17.9056C42.2555 19.5079 41.6324 21.1829 40.8991 22.9002C40.363 21.8831 39.8067 20.8768 39.2304 19.882ZM29.0279 9.94469C30.1706 11.1829 31.3152 12.5651 32.441 14.065C30.1573 13.9571 27.8697 13.9567 25.5859 14.0636C26.7129 12.5776 27.8672 11.1971 29.0279 9.94469ZM18.7598 19.8989C18.1908 20.8858 17.6448 21.8858 17.1225 22.8982C16.4011 21.187 15.7837 19.5043 15.2796 17.8794C16.9344 17.5092 18.6991 17.2065 20.5379 16.9767C19.9224 17.9367 19.3296 18.9109 18.7598 19.8987V19.8989ZM20.5907 34.7053C18.691 34.4932 16.8997 34.2061 15.2454 33.8459C15.7574 32.192 16.3884 30.4735 17.1254 28.7256C17.6499 29.7387 18.1981 30.7393 18.7696 31.7266C19.3573 32.7416 19.9658 33.7358 20.5907 34.7053ZM29.0963 41.7355C27.9218 40.4686 26.7505 39.0668 25.6065 37.5593C26.7172 37.6028 27.8493 37.625 29 37.625C30.1822 37.625 31.3508 37.5985 32.5011 37.5473C31.3717 39.082 30.2314 40.4858 29.0963 41.7355ZM40.9224 28.6363C41.6977 30.4035 42.3511 32.1129 42.8699 33.7385C41.1884 34.1223 39.3727 34.4313 37.4596 34.6609C38.0726 33.689 38.6663 32.7051 39.2402 31.7097C39.8236 30.6978 40.3845 29.6731 40.9224 28.6363ZM37.0939 30.4717C36.2154 31.9979 35.2874 33.4952 34.3115 34.961C32.5438 35.0862 30.7722 35.1484 29 35.1475C27.195 35.1475 25.4393 35.0913 23.7487 34.9817C22.7474 33.5192 21.8017 32.0193 20.9138 30.4853H20.914C20.0302 28.9594 19.2047 27.4005 18.4392 25.812C19.2027 24.2231 20.0258 22.6635 20.9065 21.1364L20.9063 21.1367C21.7867 19.6092 22.7248 18.1158 23.7186 16.6596C25.4434 16.5291 27.2122 16.4611 28.9998 16.4611H29C30.7957 16.4611 32.5668 16.5297 34.2911 16.6611C35.2749 18.1152 36.207 19.6035 37.0858 21.1233C37.9695 22.647 38.8034 24.199 39.5861 25.7769C38.8114 27.3709 37.9801 28.9369 37.0939 30.4717ZM42.2052 2.80299C44.1473 3.92312 44.9026 8.44009 43.6824 14.3636C43.6044 14.7415 43.517 15.1264 43.4218 15.5168C41.0153 14.9612 38.4023 14.5482 35.6666 14.2915C34.073 12.022 32.4215 9.95874 30.7638 8.17252C31.1983 7.75372 31.6431 7.34579 32.0978 6.94909C36.3798 3.22281 40.3818 1.75152 42.2052 2.80299ZM29 20.5736C31.8604 20.5736 34.1792 22.8925 34.1792 25.7529C34.1792 28.6132 31.8604 30.9321 29 30.9321C26.1396 30.9321 23.8208 28.6132 23.8208 25.7529C23.8208 22.8925 26.1396 20.5736 29 20.5736Z" fill="#00D8FF"/>
</svg>
