<svg width="58" height="58" viewBox="0 0 58 58" fill="none" xmlns="http://www.w3.org/2000/svg">
<path d="M10.6974 49.3018L6.62469 3.625H51.3753L47.2972 49.2946L28.9728 54.375L10.6974 49.3018Z" fill="#E44F26"/>
<path d="M29 50.4927L43.8081 46.3873L47.2917 7.3606H29V50.4927Z" fill="#F1662A"/>
<path d="M29 24.3002H21.5869L21.0758 18.5636H29V12.9612H14.9531L15.0873 14.4656L16.4629 29.9026H29V24.3002Z" fill="#EBEBEB"/>
<path d="M29 38.849L28.9746 38.8562L22.736 37.1724L22.3373 32.7046H16.7131L17.4979 41.4988L28.9746 44.6852L29 44.678V38.849Z" fill="#EBEBEB"/>
<path d="M28.9801 24.3003V29.9027H35.8784L35.2296 37.169L28.9801 38.8547V44.6837L40.4659 41.4991L40.5493 40.553L41.8651 25.8047L42.0029 24.3003H28.9801Z" fill="white"/>
<path d="M28.9801 12.9612V18.5636H42.5122L42.6246 17.3057L42.8801 14.4656L43.0143 12.9612H28.9801Z" fill="white"/>
</svg>
