<svg width="50" height="50" viewBox="0 0 50 50" fill="none" xmlns="http://www.w3.org/2000/svg">
<path d="M0 0H50V50H0V0Z" fill="#F7DF1E"/>
<path d="M13.1469 41.7835L16.973 39.4679C17.7113 40.7767 18.3828 41.8841 19.9935 41.8841C21.5375 41.8841 22.5111 41.2802 22.5111 38.931V22.9548H27.2098V38.9974C27.2098 43.864 24.357 46.0792 20.1949 46.0792C16.4361 46.0792 14.2543 44.1326 13.1467 41.7831" fill="black"/>
<path d="M29.7619 41.28L33.5877 39.0649C34.5949 40.7097 35.9039 41.9179 38.2195 41.9179C40.1666 41.9179 41.408 40.9444 41.408 39.6019C41.408 37.9909 40.1326 37.4202 37.9846 36.4808L36.8102 35.9769C33.4201 34.5341 31.1715 32.7216 31.1715 28.8954C31.1715 25.3712 33.8564 22.686 38.052 22.686C41.0391 22.686 43.1871 23.7267 44.7309 26.4452L41.0723 28.7948C40.2666 27.3517 39.3943 26.7812 38.0518 26.7812C36.6756 26.7812 35.8029 27.6538 35.8029 28.7948C35.8029 30.2044 36.6756 30.7753 38.6893 31.6479L39.8639 32.1513C43.858 33.8632 46.1066 35.6083 46.1066 39.5349C46.1066 43.7642 42.784 46.0798 38.3201 46.0798C33.957 46.0798 31.1377 43.9989 29.7617 41.2802" fill="black"/>
</svg>
