<svg width="66" height="66" viewBox="0 0 66 66" fill="none" xmlns="http://www.w3.org/2000/svg">
<path d="M33 61.8752C32.2209 61.8755 31.4555 61.6706 30.7807 61.2812L23.7187 57.1005C22.6648 56.5106 23.1784 56.3023 23.5269 56.1806C24.6478 55.8343 25.7211 55.3493 26.7217 54.7369C26.8055 54.6981 26.8978 54.6814 26.9898 54.6882C27.0818 54.6951 27.1706 54.7253 27.2477 54.7761L32.6741 57.9997C32.7752 58.0532 32.8877 58.0811 33.0021 58.0811C33.1164 58.0811 33.2289 58.0532 33.33 57.9997L54.4912 45.7856C54.5903 45.7263 54.6722 45.6422 54.7289 45.5417C54.7857 45.4412 54.8154 45.3277 54.8151 45.2122V20.7799C54.8151 20.6626 54.785 20.5473 54.7275 20.4451C54.6701 20.3428 54.5873 20.2571 54.4871 20.1962L33.3259 7.99236C33.2261 7.93616 33.1135 7.90664 32.999 7.90664C32.8844 7.90664 32.7718 7.93616 32.6721 7.99236L11.5232 20.2003C11.4223 20.26 11.3385 20.3447 11.28 20.4462C11.2215 20.5477 11.1901 20.6627 11.1891 20.7799V45.2019C11.1893 45.3171 11.2202 45.4301 11.2786 45.5294C11.3369 45.6287 11.4206 45.7107 11.5211 45.7671L17.325 49.1165C20.4703 50.6882 22.3967 48.836 22.3967 46.9757V22.863C22.3967 22.6989 22.4619 22.5415 22.5779 22.4255C22.6939 22.3094 22.8513 22.2442 23.0154 22.2442H25.6967C25.8608 22.2442 26.0182 22.3094 26.1342 22.4255C26.2502 22.5415 26.3154 22.6989 26.3154 22.863V46.9777C26.3154 51.1749 24.0302 53.5777 20.0496 53.5777C18.3323 53.6077 16.6419 53.1484 15.1759 52.2536L9.61331 49.0629C8.93802 48.6697 8.3777 48.1062 7.98828 47.4287C7.59886 46.7512 7.39397 45.9834 7.39406 45.2019V20.7799C7.39205 19.9972 7.59608 19.2278 7.98563 18.549C8.37519 17.8701 8.93655 17.3058 9.61331 16.9127L30.7766 4.69442C31.4583 4.32146 32.2229 4.12598 33 4.12598C33.7771 4.12598 34.5416 4.32146 35.2234 4.69442L56.3846 16.9127C57.0598 17.3052 57.6203 17.8679 58.0101 18.5446C58.3998 19.2214 58.6053 19.9886 58.6059 20.7695V45.2019C58.6048 45.9834 58.3991 46.7509 58.0094 47.4282C57.6198 48.1056 57.0596 48.6691 56.3846 49.0629L35.2234 61.2812C34.5474 61.6712 33.7805 61.8761 33 61.8752Z" fill="#2B3029"/>
<path d="M28.9864 37.0281C28.9864 36.864 29.0515 36.7066 29.1676 36.5906C29.2836 36.4746 29.441 36.4094 29.6051 36.4094H32.342C32.4883 36.4098 32.6296 36.4621 32.741 36.5569C32.8524 36.6516 32.9266 36.7828 32.9505 36.9271C33.363 39.7135 34.6005 41.1181 40.196 41.1181C44.6531 41.1181 46.5527 40.1095 46.5527 37.7438C46.5527 36.3805 46.0144 35.3678 39.0864 34.6892C33.2949 34.1159 29.7144 32.833 29.7144 28.2047C29.7144 23.9354 33.3135 21.3882 39.3463 21.3882C46.1257 21.3882 49.4814 23.7415 49.9063 28.7905C49.9128 28.8748 49.9019 28.9595 49.8744 29.0395C49.8469 29.1194 49.8033 29.1928 49.7463 29.2553C49.6892 29.3177 49.62 29.3678 49.5429 29.4024C49.4658 29.4371 49.3824 29.4555 49.2979 29.4567H46.5424C46.4041 29.4547 46.2705 29.4066 46.1629 29.3198C46.0552 29.2331 45.9797 29.1128 45.9484 28.9782C45.2904 26.0474 43.6796 25.111 39.3484 25.111C34.4809 25.111 33.9157 26.8064 33.9157 28.0769C33.9157 29.6155 34.584 30.0651 41.1551 30.9334C47.6582 31.7935 50.7478 33.0104 50.7478 37.5809C50.7478 42.1926 46.9033 44.8326 40.1981 44.8326C30.9272 44.845 28.9864 40.5942 28.9864 37.0281Z" fill="#2B3029"/>
</svg>
