<svg width="62" height="62" viewBox="0 0 62 62" fill="none" xmlns="http://www.w3.org/2000/svg">
<g clip-path="url(#clip0)">
<path d="M29.2407 42.908C29.2117 42.9661 29.1826 43.0126 29.2407 42.908V42.908ZM53.3742 34.4798C51.4251 34.4798 49.5031 34.9255 47.7555 35.7876C47.1839 34.6348 46.593 33.6273 46.4961 32.8717C46.3799 31.9901 46.2539 31.467 46.3896 30.4208C46.5252 29.3745 47.1355 27.8923 47.1258 27.7858C47.1161 27.6792 46.9902 27.1464 45.7405 27.1367C44.4908 27.127 43.4155 27.3789 43.2896 27.7083C43.0684 28.3101 42.8967 28.9289 42.7761 29.5586C42.5533 30.692 40.2787 34.7414 38.9902 36.8533C38.564 36.0298 38.2056 35.3033 38.1281 34.722C38.0118 33.8405 37.8859 33.3173 38.0215 32.2711C38.1571 31.2248 38.7674 29.7426 38.7577 29.6361C38.7481 29.5295 38.6221 28.9967 37.3744 28.987C36.1266 28.9773 35.0494 29.2292 34.9234 29.5586C34.7975 29.888 34.6619 30.663 34.41 31.4089C34.1581 32.1548 31.1259 38.8973 30.3335 40.6508C29.9266 41.542 29.5779 42.2589 29.326 42.7433C29.2872 42.8208 29.2582 42.8692 29.2388 42.908C29.2679 42.8595 29.2872 42.8111 29.2872 42.8305C29.0741 43.247 28.9482 43.4795 28.9482 43.4795V43.4892C28.7835 43.7992 28.5994 44.0801 28.5122 44.0801C28.4541 44.0801 28.3282 43.2664 28.5413 42.1523C28.9966 39.808 30.0719 36.1655 30.0622 36.0395C30.0526 35.9717 30.2657 35.342 29.3551 35.003C28.4735 34.6833 28.1538 35.2161 28.0763 35.2161C27.9988 35.2161 27.9407 35.4098 27.9407 35.4098C27.9407 35.4098 28.9191 31.3023 26.0613 31.3023C24.2788 31.3023 21.7988 33.2592 20.5801 35.032C19.8148 35.4486 18.1582 36.3495 16.4145 37.3086L14.4092 38.413C14.3607 38.3645 14.322 38.3161 14.2736 38.2676C10.8054 34.567 4.40393 31.9514 4.67518 26.9817C4.77205 25.1701 5.40174 20.4136 16.9861 14.6398C26.4798 9.91233 34.069 11.2105 35.3768 14.0973C37.2562 18.2145 31.3177 25.8773 21.4597 26.9817C17.701 27.3983 15.7267 25.9451 15.2326 25.4026C14.7192 24.8311 14.6417 24.802 14.4479 24.9086C14.1282 25.083 14.3317 25.5867 14.4479 25.887C14.7386 26.6523 15.9495 28.0086 18.0129 28.6867C19.8245 29.2776 24.2304 29.607 29.5566 27.5436C35.5415 25.238 40.2012 18.8151 38.8333 13.4386C37.4422 7.97483 28.3824 6.18264 19.8167 9.22451C14.7114 11.0361 9.19149 13.8842 5.22155 17.5945C0.503742 22.012 -0.249946 25.858 0.0600542 27.4661C1.16443 33.172 9.02874 36.892 12.1752 39.6433L11.7393 39.8855C10.1602 40.6701 4.16562 43.8089 2.66405 47.122C0.968742 50.8808 2.94499 53.5739 4.24118 53.942C8.29055 55.0658 12.4349 53.0411 14.663 49.7183C16.8911 46.3955 16.6199 42.0555 15.593 40.0792C15.5833 40.0501 15.5639 40.0308 15.5542 40.0017C16.7167 39.3132 17.889 38.6414 19.0708 37.9867C18.6833 39.033 18.4024 40.2923 18.2571 42.1136C18.0827 44.2448 18.9642 47.0058 20.1074 48.0908C20.6111 48.5655 21.2195 48.5751 21.5992 48.5751C22.9361 48.5751 23.5367 47.4708 24.2052 46.1533C25.0286 44.5451 25.7552 42.6755 25.7552 42.6755C25.7552 42.6755 24.8446 47.7323 27.3342 47.7323C28.2449 47.7323 29.1555 46.5601 29.5624 45.9595V45.9692C29.5624 45.9692 29.5817 45.9305 29.6302 45.853C29.7271 45.7076 29.7755 45.6205 29.7755 45.6205V45.5914C30.1436 44.9617 30.9477 43.5183 32.1586 41.1351C33.728 38.0545 35.2276 34.2086 35.2276 34.2086C35.3729 35.0533 35.5744 35.8884 35.8282 36.7079C36.0995 37.6283 36.6711 38.6358 37.1264 39.6142C36.7582 40.118 36.5354 40.4086 36.5354 40.4086C36.5354 40.4163 36.5393 40.4221 36.5451 40.428C36.2545 40.8155 35.9251 41.232 35.5861 41.6389C34.348 43.1114 32.8736 44.797 32.6798 45.2814C32.4473 45.853 32.5054 46.2792 32.9511 46.6086C33.2804 46.8605 33.8617 46.8992 34.472 46.8508C35.5861 46.7733 36.3707 46.502 36.7486 46.3276C37.4454 46.078 38.104 45.7323 38.7054 45.3008C39.9164 44.4095 40.6526 43.1308 40.5848 41.4451C40.5461 40.5151 40.2457 39.5851 39.8776 38.7133C39.9842 38.5583 40.1004 38.3936 40.207 38.2289C41.4677 36.3479 42.6035 34.3861 43.6073 32.3563C43.7526 33.2011 43.9522 34.0361 44.2079 34.8557C44.4404 35.6404 44.8957 36.5026 45.3123 37.3454C43.5104 38.8082 42.3964 40.5035 42.0108 41.6176C41.2939 43.681 41.8558 44.611 42.9117 44.8241C43.3864 44.921 44.0646 44.6982 44.5683 44.4851C45.3162 44.2351 46.0214 43.8728 46.6589 43.4098C47.8698 42.5185 49.042 41.2688 48.9626 39.5735C48.9335 38.8082 48.7204 38.0429 48.4394 37.3066C49.9604 36.6673 51.9366 36.3185 54.4554 36.6091C59.8494 37.2388 60.9053 40.6101 60.7019 42.0148C60.4984 43.4195 59.365 44.2041 58.9872 44.4366C58.6094 44.6691 58.4931 44.7563 58.5222 44.9307C58.5706 45.1826 58.745 45.1729 59.0647 45.1148C59.5103 45.0373 61.8934 43.9716 62 41.3657C62.155 38.072 58.9872 34.4488 53.3781 34.4779L53.3742 34.4798ZM11.7974 48.4976C10.0149 50.4448 7.51749 51.1811 6.44218 50.5611C5.28937 49.8907 5.74468 47.0251 7.9418 44.9501C9.27868 43.6907 11.0031 42.5282 12.1462 41.8113C12.4077 41.6563 12.7856 41.4238 13.2506 41.1429C13.2883 41.1187 13.3271 41.096 13.3668 41.0751C13.454 41.017 13.5509 40.9685 13.6477 40.9104C14.4499 43.8554 13.6768 46.4516 11.7974 48.4957V48.4976ZM24.8136 39.6433C24.1936 41.1642 22.8877 45.0392 22.0914 44.8358C21.4132 44.6614 20.9967 41.7067 21.9557 38.8005C22.4401 37.3376 23.467 35.5939 24.0773 34.9158C25.0557 33.8211 26.1311 33.4723 26.3829 33.9083C26.722 34.4798 25.2011 38.6939 24.8136 39.6433ZM35.5667 44.7776C35.3051 44.9133 35.0629 45.0005 34.9467 44.9326C34.8595 44.8842 35.0532 44.7001 35.0532 44.7001C35.0532 44.7001 36.3998 43.2567 36.9326 42.598C37.2426 42.2105 37.6011 41.7551 37.9886 41.2514C37.9886 41.2998 37.9982 41.3483 37.9982 41.4064C37.9866 43.1405 36.3204 44.3126 35.5647 44.7776H35.5667ZM43.8592 42.8886C43.6654 42.753 43.6945 42.2976 44.3436 40.8833C44.5954 40.3311 45.1767 39.4011 46.1842 38.5098C46.2985 38.847 46.3605 39.1996 46.3682 39.5561C46.3586 41.7358 44.7989 42.5495 43.8592 42.8886Z" fill="#B01EA2"/>
</g>
<defs>
<clipPath id="clip0">
<rect width="62" height="62" fill="white"/>
</clipPath>
</defs>
</svg>
